<svg fill="none" xmlns="http://www.w3.org/2000/svg">
<g clip-path="url(#clip0_5_2380)">
<rect width="100%" height="100%" fill="#1A1837"/>
<path opacity="0.5" fill-rule="evenodd" clip-rule="evenodd" d="M1540.42 673.479C1678.03 493.056 1725.04 177.594 1951.82 174.083C2179.03 170.564 2241.28 480.292 2379.62 660.484C2516.67 838.989 2783.37 974.599 2735.34 1194.6C2687.05 1415.77 2398.54 1453.54 2188.22 1537.24C2000.74 1611.84 1810.15 1709.79 1621.8 1637.73C1412.96 1557.83 1219.19 1382.2 1200.38 1159.31C1182.9 952.161 1414.3 838.838 1540.42 673.479Z" fill="#282552"/>
<path fill-rule="evenodd" clip-rule="evenodd" d="M444.262 -289.675C494.043 -239.192 574.033 -207.931 585.884 -138.029C597.747 -68.0561 536.243 -10.2031 502.199 52.0701C469.388 112.089 453.169 190.046 390.97 218.509C329.175 246.787 261.161 201.428 193.698 193.245C122.537 184.614 44.5007 209.698 -14.7166 169.303C-78.0441 126.105 -125.312 51.4543 -126.529 -25.1941C-127.705 -99.2479 -54.2271 -148.32 -20.808 -214.415C12.7704 -280.825 8.47314 -369.891 69.3781 -412.65C132.273 -456.807 220.16 -458.81 293.18 -434.857C361.209 -412.541 393.991 -340.654 444.262 -289.675Z" fill="#35316E"/>
<path opacity="0.5" fill-rule="evenodd" clip-rule="evenodd" d="M-572.582 2158.48C-434.972 1978.06 -387.958 1662.59 -161.184 1659.08C66.0346 1655.56 128.276 1965.29 266.622 2145.48C403.671 2323.99 670.367 2459.6 622.337 2679.6C574.054 2900.77 285.544 2938.54 75.2164 3022.24C-112.259 3096.84 -302.85 3194.79 -491.199 3122.73C-700.041 3042.83 -893.809 2867.2 -912.621 2644.31C-930.104 2437.16 -698.703 2323.84 -572.582 2158.48Z" fill="#282552"/>
</g>
<defs>
<clipPath id="clip0_5_2380">
<rect width="100%" height="100%" fill="white"/>
</clipPath>
</defs>
</svg>
