<svg width="24" height="20" viewBox="0 0 24 20" fill="none" xmlns="http://www.w3.org/2000/svg">
<path d="M23.7075 10.7074L14.7075 19.7074C14.5199 19.8951 14.2654 20.0005 14 20.0005C13.7346 20.0005 13.4801 19.8951 13.2925 19.7074C13.1049 19.5198 12.9994 19.2653 12.9994 18.9999C12.9994 18.7346 13.1049 18.4801 13.2925 18.2924L20.5863 10.9999H1C0.734784 10.9999 0.48043 10.8946 0.292893 10.7071C0.105357 10.5195 0 10.2652 0 9.99995C0 9.73473 0.105357 9.48038 0.292893 9.29284C0.48043 9.1053 0.734784 8.99995 1 8.99995H20.5863L13.2925 1.70745C13.1049 1.5198 12.9994 1.26531 12.9994 0.999946C12.9994 0.734582 13.1049 0.480086 13.2925 0.292446C13.4801 0.104805 13.7346 -0.000610352 14 -0.000610352C14.2654 -0.000610352 14.5199 0.104805 14.7075 0.292446L23.7075 9.29245C23.8005 9.38532 23.8742 9.49561 23.9246 9.61701C23.9749 9.7384 24.0008 9.86853 24.0008 9.99995C24.0008 10.1314 23.9749 10.2615 23.9246 10.3829C23.8742 10.5043 23.8005 10.6146 23.7075 10.7074Z" fill="white"/>
</svg>
