<svg width="49" height="13" viewBox="0 0 49 13" fill="none" xmlns="http://www.w3.org/2000/svg">
<circle cx="6.5" cy="6.5" r="6.5" fill="#736EBE"/>
<path fill-rule="evenodd" clip-rule="evenodd" d="M24.5 12C27.5376 12 30 9.53757 30 6.5C30 3.46243 27.5376 1 24.5 1C21.4624 1 19 3.46243 19 6.5C19 9.53757 21.4624 12 24.5 12ZM24.5 13C28.0899 13 31 10.0899 31 6.5C31 2.91015 28.0899 0 24.5 0C20.9101 0 18 2.91015 18 6.5C18 10.0899 20.9101 13 24.5 13Z" fill="#736EBE"/>
<path fill-rule="evenodd" clip-rule="evenodd" d="M42.5 12C45.5376 12 48 9.53757 48 6.5C48 3.46243 45.5376 1 42.5 1C39.4624 1 37 3.46243 37 6.5C37 9.53757 39.4624 12 42.5 12ZM42.5 13C46.0899 13 49 10.0899 49 6.5C49 2.91015 46.0899 0 42.5 0C38.9101 0 36 2.91015 36 6.5C36 10.0899 38.9101 13 42.5 13Z" fill="#736EBE"/>
</svg>
