<svg width="72" height="71" viewBox="0 0 72 71" fill="none" xmlns="http://www.w3.org/2000/svg">
<path d="M69.4172 17.7941L53.7059 2.08633C53.1835 1.56387 52.5634 1.14942 51.8808 0.866655C51.1983 0.583892 50.4668 0.438354 49.728 0.438354C48.9892 0.438354 48.2576 0.583892 47.5751 0.866655C46.8925 1.14942 46.2724 1.56387 45.75 2.08633L2.39886 45.4375C1.87425 45.9579 1.45833 46.5775 1.17528 47.2601C0.892217 47.9427 0.747668 48.6747 0.750028 49.4137V65.125C0.750028 66.6169 1.34266 68.0476 2.39755 69.1025C3.45244 70.1574 4.88319 70.75 6.37503 70.75H65.4375C66.1834 70.75 66.8988 70.4537 67.4263 69.9262C67.9537 69.3988 68.25 68.6834 68.25 67.9375C68.25 67.1916 67.9537 66.4762 67.4263 65.9488C66.8988 65.4213 66.1834 65.125 65.4375 65.125H30.0422L69.4172 25.75C69.9397 25.2277 70.3541 24.6075 70.6369 23.925C70.9197 23.2424 71.0652 22.5109 71.0652 21.7721C71.0652 21.0333 70.9197 20.3017 70.6369 19.6192C70.3541 18.9366 69.9397 18.3165 69.4172 17.7941ZM37.3125 18.4762L43.1801 24.3438L13.4063 54.1176L7.5387 48.25L37.3125 18.4762ZM6.37503 65.125V55.0387L16.4614 65.125H6.37503ZM23.25 63.9613L17.386 58.0938L47.1563 28.3199L53.0239 34.1875L23.25 63.9613ZM57 30.2113L41.2922 14.5L49.7297 6.0625L65.4375 21.7738L57 30.2113Z" fill="#332726"/>
</svg>
