<svg width="75" height="62" viewBox="0 0 75 62" fill="none" xmlns="http://www.w3.org/2000/svg">
<path d="M68.4375 0.0625H6.5625C5.07066 0.0625 3.63992 0.655132 2.58502 1.71002C1.53013 2.76492 0.9375 4.19566 0.9375 5.6875V56.3125C0.9375 57.8043 1.53013 59.2351 2.58502 60.29C3.63992 61.3449 5.07066 61.9375 6.5625 61.9375H11.2699C11.8022 61.9377 12.3236 61.7868 12.7736 61.5024C13.2235 61.218 13.5835 60.8117 13.8117 60.3309C15.1794 57.4434 17.3386 55.0035 20.0384 53.295C22.7382 51.5864 25.8675 50.6794 29.0625 50.6794C32.2575 50.6794 35.3868 51.5864 38.0866 53.295C40.7864 55.0035 42.9456 57.4434 44.3133 60.3309C44.5415 60.8117 44.9015 61.218 45.3514 61.5024C45.8014 61.7868 46.3228 61.9377 46.8551 61.9375H68.4375C69.9293 61.9375 71.3601 61.3449 72.415 60.29C73.4699 59.2351 74.0625 57.8043 74.0625 56.3125V5.6875C74.0625 4.19566 73.4699 2.76492 72.415 1.71002C71.3601 0.655132 69.9293 0.0625 68.4375 0.0625ZM20.625 36.625C20.625 34.9562 21.1199 33.3249 22.047 31.9374C22.9741 30.5498 24.2919 29.4684 25.8336 28.8298C27.3754 28.1912 29.0719 28.0241 30.7086 28.3496C32.3453 28.6752 33.8487 29.4788 35.0287 30.6588C36.2087 31.8388 37.0123 33.3422 37.3379 34.9789C37.6634 36.6156 37.4963 38.3121 36.8577 39.8539C36.2191 41.3956 35.1377 42.7134 33.7501 43.6405C32.3626 44.5676 30.7313 45.0625 29.0625 45.0625C26.8247 45.0625 24.6786 44.1736 23.0963 42.5912C21.5139 41.0089 20.625 38.8628 20.625 36.625ZM68.4375 56.3125H48.5496C46.2009 52.2745 42.6606 49.062 38.4141 47.1156C40.5431 45.2199 42.0457 42.7219 42.7227 39.9528C43.3997 37.1837 43.2191 34.2742 42.2049 31.61C41.1907 28.9458 39.3907 26.6528 37.0436 25.0349C34.6966 23.417 31.9132 22.5506 29.0625 22.5506C26.2118 22.5506 23.4284 23.417 21.0814 25.0349C18.7343 26.6528 16.9343 28.9458 15.9201 31.61C14.9059 34.2742 14.7253 37.1837 15.4023 39.9528C16.0793 42.7219 17.5819 45.2199 19.7109 47.1156C15.4644 49.062 11.9241 52.2745 9.57539 56.3125H6.5625V5.6875H68.4375V56.3125ZM12.1875 19.75V14.125C12.1875 13.3791 12.4838 12.6637 13.0113 12.1363C13.5387 11.6088 14.2541 11.3125 15 11.3125H60C60.7459 11.3125 61.4613 11.6088 61.9887 12.1363C62.5162 12.6637 62.8125 13.3791 62.8125 14.125V47.875C62.8125 48.6209 62.5162 49.3363 61.9887 49.8637C61.4613 50.3912 60.7459 50.6875 60 50.6875H54.375C53.6291 50.6875 52.9137 50.3912 52.3863 49.8637C51.8588 49.3363 51.5625 48.6209 51.5625 47.875C51.5625 47.1291 51.8588 46.4137 52.3863 45.8863C52.9137 45.3588 53.6291 45.0625 54.375 45.0625H57.1875V16.9375H17.8125V19.75C17.8125 20.4959 17.5162 21.2113 16.9887 21.7387C16.4613 22.2662 15.7459 22.5625 15 22.5625C14.2541 22.5625 13.5387 22.2662 13.0113 21.7387C12.4838 21.2113 12.1875 20.4959 12.1875 19.75Z" fill="#736EBE"/>
</svg>
