<svg width="75" height="68" viewBox="0 0 75 68" fill="none" xmlns="http://www.w3.org/2000/svg">
<path d="M71.6015 17.2656L57.0468 2.71096C55.4645 1.12874 53.3184 0.239868 51.0808 0.239868C48.8431 0.239868 46.6971 1.12874 45.1147 2.71096L3.39833 44.4274C1.81612 46.0097 0.927246 48.1557 0.927246 50.3934C0.927246 52.631 1.81612 54.7771 3.39833 56.3594L13.9663 66.9274C14.2285 67.1893 14.5399 67.3968 14.8826 67.538C15.2253 67.6792 15.5925 67.7512 15.9632 67.75H68.4374C69.1833 67.75 69.8987 67.4537 70.4261 66.9263C70.9536 66.3988 71.2499 65.6834 71.2499 64.9375C71.2499 64.1916 70.9536 63.4762 70.4261 62.9488C69.8987 62.4213 69.1833 62.125 68.4374 62.125H38.6601L71.6015 29.1977C73.1837 27.6154 74.0725 25.4693 74.0725 23.2317C74.0725 20.994 73.1837 18.848 71.6015 17.2656ZM30.7077 62.125H17.1269L7.38154 52.3797C6.85449 51.8523 6.55843 51.1372 6.55843 50.3916C6.55843 49.646 6.85449 48.9309 7.38154 48.4035L26.2499 29.5387L44.7737 48.0625L30.7077 62.125ZM67.6218 25.211L48.7499 44.0863L30.2261 25.5625L49.1015 6.69768C49.3627 6.43618 49.6729 6.22873 50.0143 6.0872C50.3557 5.94566 50.7217 5.87281 51.0913 5.87281C51.4609 5.87281 51.8269 5.94566 52.1683 6.0872C52.5098 6.22873 52.8199 6.43618 53.0811 6.69768L67.6288 21.2453C68.1558 21.7727 68.4519 22.4878 68.4519 23.2334C68.4519 23.979 68.1558 24.6941 67.6288 25.2215L67.6218 25.211Z" fill="#736EBE"/>
</svg>
