<svg width="75" height="74" viewBox="0 0 75 74" fill="none" xmlns="http://www.w3.org/2000/svg">
<path d="M41.7188 37C41.7188 37.8344 41.4713 38.6501 41.0078 39.3438C40.5442 40.0376 39.8853 40.5783 39.1144 40.8976C38.3436 41.2169 37.4953 41.3005 36.677 41.1377C35.8586 40.9749 35.1069 40.5731 34.5169 39.9831C33.9269 39.3931 33.5251 38.6414 33.3623 37.8231C33.1995 37.0047 33.2831 36.1564 33.6024 35.3856C33.9217 34.6147 34.4624 33.9558 35.1562 33.4923C35.85 33.0287 36.6656 32.7813 37.5 32.7813C38.6189 32.7813 39.6919 33.2257 40.4831 34.0169C41.2743 34.8081 41.7188 35.8811 41.7188 37ZM22.0312 32.7813C21.1969 32.7813 20.3812 33.0287 19.6874 33.4923C18.9937 33.9558 18.4529 34.6147 18.1336 35.3856C17.8143 36.1564 17.7308 37.0047 17.8936 37.8231C18.0563 38.6414 18.4581 39.3931 19.0481 39.9831C19.6381 40.5731 20.3899 40.9749 21.2082 41.1377C22.0266 41.3005 22.8748 41.2169 23.6457 40.8976C24.4166 40.5783 25.0755 40.0376 25.539 39.3438C26.0026 38.6501 26.25 37.8344 26.25 37C26.25 35.8811 25.8055 34.8081 25.0144 34.0169C24.2232 33.2257 23.1501 32.7813 22.0312 32.7813ZM52.9688 32.7813C52.1344 32.7813 51.3187 33.0287 50.6249 33.4923C49.9312 33.9558 49.3904 34.6147 49.0711 35.3856C48.7518 36.1564 48.6683 37.0047 48.8311 37.8231C48.9938 38.6414 49.3956 39.3931 49.9856 39.9831C50.5756 40.5731 51.3274 40.9749 52.1457 41.1377C52.9641 41.3005 53.8123 41.2169 54.5832 40.8976C55.3541 40.5783 56.0129 40.0376 56.4765 39.3438C56.9401 38.6501 57.1875 37.8344 57.1875 37C57.1875 35.8811 56.743 34.8081 55.9519 34.0169C55.1607 33.2257 54.0876 32.7813 52.9688 32.7813ZM74.0625 37C74.0639 43.3124 72.4309 49.5177 69.3226 55.0118C66.2143 60.5059 61.7365 65.1016 56.3251 68.3518C50.9137 71.6019 44.753 73.3956 38.4427 73.5583C32.1324 73.7211 25.8874 72.2473 20.3156 69.2805L8.34492 73.2707C7.35382 73.6012 6.29025 73.6492 5.27341 73.4092C4.25658 73.1693 3.32667 72.6509 2.58791 71.9121C1.84915 71.1733 1.33074 70.2434 1.09077 69.2266C0.850806 68.2098 0.898773 67.1462 1.2293 66.1551L5.21953 54.1844C2.61146 49.2809 1.15476 43.8477 0.959991 38.2972C0.765226 32.7467 1.83752 27.2247 4.09548 22.1505C6.35344 17.0763 9.73771 12.5831 13.9914 9.0121C18.2451 5.44109 23.2565 2.88607 28.6451 1.54098C34.0337 0.1959 39.6579 0.0961022 45.0908 1.24916C50.5237 2.40223 55.6226 4.77784 60.0003 8.19569C64.378 11.6135 67.9196 15.9838 70.3561 20.9747C72.7927 25.9657 74.0602 31.4461 74.0625 37ZM68.4375 37C68.4361 32.2544 67.3431 27.5726 65.2428 23.317C63.1426 19.0614 60.0914 15.346 56.3255 12.4583C52.5596 9.57052 48.1798 7.58785 43.525 6.66365C38.8702 5.73944 34.0652 5.89848 29.4817 7.12845C24.8982 8.35842 20.6591 10.6264 17.0923 13.7568C13.5256 16.8872 10.7268 20.7962 8.91256 25.1814C7.09829 29.5666 6.31717 34.3104 6.62963 39.0457C6.94208 43.7811 8.33973 48.3811 10.7145 52.4899C10.9138 52.8348 11.0375 53.2182 11.0775 53.6145C11.1175 54.0109 11.0729 54.4113 10.9465 54.7891L6.5625 67.9375L19.7109 63.5535C19.9973 63.4559 20.2978 63.406 20.6004 63.4059C21.0943 63.4068 21.5794 63.5377 22.0066 63.7856C26.7098 66.5067 32.0468 67.9412 37.4805 67.9446C42.9141 67.9481 48.2529 66.5203 52.9595 63.8051C57.6662 61.0899 61.5747 57.183 64.2918 52.4774C67.0089 47.7719 68.4388 42.4337 68.4375 37Z" fill="#332726"/>
</svg>
