<svg width="63" height="74" viewBox="0 0 63 74" fill="none" xmlns="http://www.w3.org/2000/svg">
<path d="M61.6148 20.9477L41.9273 1.26016C41.666 0.99906 41.3557 0.792021 41.0143 0.650867C40.6728 0.509713 40.307 0.43721 39.9375 0.437501H6.1875C4.69566 0.437501 3.26492 1.03013 2.21002 2.08502C1.15513 3.13992 0.5625 4.57066 0.5625 6.0625V67.9375C0.5625 69.4293 1.15513 70.8601 2.21002 71.915C3.26492 72.9699 4.69566 73.5625 6.1875 73.5625H56.8125C58.3043 73.5625 59.7351 72.9699 60.79 71.915C61.8449 70.8601 62.4375 69.4293 62.4375 67.9375V22.9375C62.4378 22.568 62.3653 22.2022 62.2241 21.8607C62.083 21.5193 61.8759 21.209 61.6148 20.9477ZM42.75 10.0387L52.8363 20.125H42.75V10.0387ZM56.8125 67.9375H6.1875V6.0625H37.125V22.9375C37.125 23.6834 37.4213 24.3988 37.9488 24.9262C38.4762 25.4537 39.1916 25.75 39.9375 25.75H56.8125V67.9375ZM42.75 45.4375C42.75 46.1834 42.4537 46.8988 41.9262 47.4262C41.3988 47.9537 40.6834 48.25 39.9375 48.25H34.3125V53.875C34.3125 54.6209 34.0162 55.3363 33.4887 55.8637C32.9613 56.3912 32.2459 56.6875 31.5 56.6875C30.7541 56.6875 30.0387 56.3912 29.5113 55.8637C28.9838 55.3363 28.6875 54.6209 28.6875 53.875V48.25H23.0625C22.3166 48.25 21.6012 47.9537 21.0738 47.4262C20.5463 46.8988 20.25 46.1834 20.25 45.4375C20.25 44.6916 20.5463 43.9762 21.0738 43.4488C21.6012 42.9213 22.3166 42.625 23.0625 42.625H28.6875V37C28.6875 36.2541 28.9838 35.5387 29.5113 35.0113C30.0387 34.4838 30.7541 34.1875 31.5 34.1875C32.2459 34.1875 32.9613 34.4838 33.4887 35.0113C34.0162 35.5387 34.3125 36.2541 34.3125 37V42.625H39.9375C40.6834 42.625 41.3988 42.9213 41.9262 43.4488C42.4537 43.9762 42.75 44.6916 42.75 45.4375Z" fill="#736EBE"/>
</svg>
