<svg width="75" height="65" viewBox="0 0 75 65" fill="none" xmlns="http://www.w3.org/2000/svg">
<path d="M63.477 11.0289C60.1125 7.63063 56.1108 4.92935 51.701 3.07975C47.2911 1.23015 42.5597 0.268543 37.7777 0.25H37.5C27.803 0.25 18.5032 4.10211 11.6464 10.9589C4.78961 17.8157 0.9375 27.1155 0.9375 36.8125V56.5C0.9375 58.7378 1.82645 60.8839 3.40879 62.4662C4.99112 64.0486 7.13724 64.9375 9.375 64.9375H15C17.2378 64.9375 19.3839 64.0486 20.9662 62.4662C22.5486 60.8839 23.4375 58.7378 23.4375 56.5V42.4375C23.4375 40.1997 22.5486 38.0536 20.9662 36.4713C19.3839 34.8889 17.2378 34 15 34H6.68906C7.39075 26.3134 10.9403 19.1668 16.641 13.9631C22.3416 8.75944 29.7815 5.87461 37.5 5.875H37.7355C45.4219 5.90747 52.819 8.80949 58.477 14.0122C64.135 19.215 67.6459 26.3433 68.3215 34H60C57.7622 34 55.6161 34.8889 54.0338 36.4713C52.4514 38.0536 51.5625 40.1997 51.5625 42.4375V56.5C51.5625 58.7378 52.4514 60.8839 54.0338 62.4662C55.6161 64.0486 57.7622 64.9375 60 64.9375H65.625C67.8628 64.9375 70.0089 64.0486 71.5912 62.4662C73.1736 60.8839 74.0625 58.7378 74.0625 56.5V36.8125C74.0808 32.0298 73.1552 27.2904 71.3388 22.866C69.5223 18.4416 66.8507 14.419 63.477 11.0289ZM15 39.625C15.7459 39.625 16.4613 39.9213 16.9887 40.4488C17.5162 40.9762 17.8125 41.6916 17.8125 42.4375V56.5C17.8125 57.2459 17.5162 57.9613 16.9887 58.4887C16.4613 59.0162 15.7459 59.3125 15 59.3125H9.375C8.62908 59.3125 7.91371 59.0162 7.38626 58.4887C6.85882 57.9613 6.5625 57.2459 6.5625 56.5V39.625H15ZM68.4375 56.5C68.4375 57.2459 68.1412 57.9613 67.6137 58.4887C67.0863 59.0162 66.3709 59.3125 65.625 59.3125H60C59.2541 59.3125 58.5387 59.0162 58.0113 58.4887C57.4838 57.9613 57.1875 57.2459 57.1875 56.5V42.4375C57.1875 41.6916 57.4838 40.9762 58.0113 40.4488C58.5387 39.9213 59.2541 39.625 60 39.625H68.4375V56.5Z" fill="#736EBE"/>
</svg>
