<svg width="75" height="62" viewBox="0 0 75 62" fill="none" xmlns="http://www.w3.org/2000/svg">
<path d="M50.3109 23.0336L33.4359 11.7836C33.0123 11.5009 32.5198 11.3386 32.0111 11.314C31.5024 11.2893 30.9965 11.4033 30.5475 11.6437C30.0985 11.884 29.7232 12.2418 29.4617 12.6788C29.2001 13.1159 29.0622 13.6157 29.0625 14.125V36.625C29.0622 37.1343 29.2001 37.6341 29.4617 38.0712C29.7232 38.5082 30.0985 38.866 30.5475 39.1063C30.9965 39.3467 31.5024 39.4607 32.0111 39.436C32.5198 39.4114 33.0123 39.2491 33.4359 38.9664L50.3109 27.7164C50.6967 27.4597 51.0131 27.1116 51.2319 26.7031C51.4507 26.2946 51.5652 25.8384 51.5652 25.375C51.5652 24.9116 51.4507 24.4554 51.2319 24.0469C51.0131 23.6384 50.6967 23.2903 50.3109 23.0336ZM34.6875 31.3691V19.3984L43.6805 25.375L34.6875 31.3691ZM68.4375 0.0625H6.5625C5.07066 0.0625 3.63992 0.655132 2.58502 1.71002C1.53013 2.76492 0.9375 4.19566 0.9375 5.6875V45.0625C0.9375 46.5543 1.53013 47.9851 2.58502 49.04C3.63992 50.0949 5.07066 50.6875 6.5625 50.6875H68.4375C69.9293 50.6875 71.3601 50.0949 72.415 49.04C73.4699 47.9851 74.0625 46.5543 74.0625 45.0625V5.6875C74.0625 4.19566 73.4699 2.76492 72.415 1.71002C71.3601 0.655132 69.9293 0.0625 68.4375 0.0625ZM68.4375 45.0625H6.5625V5.6875H68.4375V45.0625ZM74.0625 59.125C74.0625 59.8709 73.7662 60.5863 73.2387 61.1137C72.7113 61.6412 71.9959 61.9375 71.25 61.9375H3.75C3.00408 61.9375 2.28871 61.6412 1.76126 61.1137C1.23382 60.5863 0.9375 59.8709 0.9375 59.125C0.9375 58.3791 1.23382 57.6637 1.76126 57.1363C2.28871 56.6088 3.00408 56.3125 3.75 56.3125H71.25C71.9959 56.3125 72.7113 56.6088 73.2387 57.1363C73.7662 57.6637 74.0625 58.3791 74.0625 59.125Z" fill="#736EBE"/>
</svg>
